# xmcd
#
# Track frame offsets: 
#        150
#        15081
#        32623
#        48596
#        62639
#        81254
#        96916
#        116718
#        131491
#        148981
#
# Disc length: 2207 seconds
#
# Revision: 0
# Processed by: cddbd v1.5.2PL0 Copyright (c) Steve Scherf et al.
# Submitted via: ExactAudioCopy v0.99pb4
#
DISCID=84089d0a
DTITLE=Musiq Soulchild - 9ine
DYEAR=2013
DGENRE=R&B
TTITLE0=Alright
TTITLE1=Feel The Fire
TTITLE2=The Hunger
TTITLE3=Slow Love
TTITLE4=So Big
TTITLE5=Never Had
TTITLE6=Pieces Of You
TTITLE7=Bring Me Down
TTITLE8=Promise
TTITLE9=Feel The Fire (Dancehall Stylee)
EXTD=
EXTT0=
EXTT1=
EXTT2=
EXTT3=
EXTT4=
EXTT5=
EXTT6=
EXTT7=
EXTT8=
EXTT9=
PLAYORDER=
